<svg width="100%" height="100%" viewBox="0 0 1200 100" preserveAspectRatio="none" xmlns="http://www.w3.org/2000/svg">
  <path d="M0 100 V 60 Q 10 30 20 60 T 40 60 T 60 60 T 80 60 T 100 60 T 120 60 T 140 60 T 160 60 T 180 60 T 200 60 T 220 60 T 240 60 T 260 60 T 280 60 T 300 60 T 320 60 T 340 60 T 360 60 T 380 60 T 400 60 T 420 60 T 440 60 T 460 60 T 480 60 T 500 60 T 520 60 T 540 60 T 560 60 T 580 60 T 600 60 T 620 60 T 640 60 T 660 60 T 680 60 T 700 60 T 720 60 T 740 60 T 760 60 T 780 60 T 800 60 T 820 60 T 840 60 T 860 60 T 880 60 T 900 60 T 920 60 T 940 60 T 960 60 T 980 60 T 1000 60 T 1020 60 T 1040 60 T 1060 60 T 1080 60 T 1100 60 T 1120 60 T 1140 60 T 1160 60 T 1180 60 T 1200 60 V 100 Z" fill="#4ade80" />
  <rect y="60" width="100%" height="40" fill="#4ade80" />
</svg>